HIERARCHY
ROOT hip
{
	OFFSET 0.000000 0.000000 0.000000 
	CHANNELS 6 Xposition Yposition Zposition Xrotation Zrotation Yrotation
	JOINT abdomen
	{
		OFFSET 0.000000 3.402643 0.000000 
		CHANNELS 3 Xrotation Zrotation Yrotation
		JOINT chest
		{
			OFFSET 0.000000 8.438565 -0.680529 
			CHANNELS 3 Xrotation Zrotation Yrotation
			JOINT neck
			{
				OFFSET 0.000000 10.207942 -0.272212 
				CHANNELS 3 Xrotation Zrotation Yrotation
				JOINT head
				{
					OFFSET 0.000000 3.130431 0.000000 
					CHANNELS 3 Xrotation Zrotation Yrotation
					End Site
					{
						OFFSET 0.000000 3.130435 0.000000 
					}
				}
			}
			JOINT lCollar
			{
				OFFSET 3.470700 6.669187 -0.816635 
				CHANNELS 3 Yrotation Zrotation Xrotation
				JOINT lShldr
				{
					OFFSET 3.198488 0.000000 0.000000 
					CHANNELS 3 Zrotation Yrotation Xrotation
					JOINT lForeArm
					{
						OFFSET 10.139888 0.000000 0.000000 
						CHANNELS 3 Yrotation Zrotation Xrotation
						JOINT lHand
						{
							OFFSET 8.370511 0.000000 0.000000 
							CHANNELS 3 Zrotation Yrotation Xrotation
							End Site
							{
								OFFSET 4.083176 0.000000 0.000000 
							}
						}
					}
				}
			}
			JOINT rCollar
			{
				OFFSET -3.470700 6.669187 -0.816635 
				CHANNELS 3 Yrotation Zrotation Xrotation
				JOINT rShldr
				{
					OFFSET -3.198488 0.000000 0.000000 
					CHANNELS 3 Zrotation Yrotation Xrotation
					JOINT rForeArm
					{
						OFFSET -10.139888 0.000000 0.000000 
						CHANNELS 3 Yrotation Zrotation Xrotation
						JOINT rHand
						{
							OFFSET -8.370511 0.000000 0.000000 
							CHANNELS 3 Zrotation Yrotation Xrotation
							End Site
							{
								OFFSET -4.083176 0.000000 0.000000 
							}
						}
					}
				}
			}
		}
	}
	JOINT lThigh
	{
		OFFSET 5.308129 -1.633274 1.361059 
		CHANNELS 3 Xrotation Zrotation Yrotation
		JOINT lShin
		{
			OFFSET -2.041588 -20.007561 0.000000 
			CHANNELS 3 Xrotation Zrotation Yrotation
			JOINT lFoot
			{
				OFFSET 0.000000 -19.190928 -1.224953 
				CHANNELS 3 Xrotation Yrotation Zrotation
				End Site
				{
					OFFSET 0.000000 -2.449906 4.627600 
				}
			}
		}
	}
	JOINT rThigh
	{
		OFFSET -5.308129 -1.633274 1.361059 
		CHANNELS 3 Xrotation Zrotation Yrotation
		JOINT rShin
		{
			OFFSET 2.041588 -20.007561 0.000000 
			CHANNELS 3 Xrotation Zrotation Yrotation
			JOINT rFoot
			{
				OFFSET 0.000000 -19.190928 -1.224953 
				CHANNELS 3 Xrotation Yrotation Zrotation
				End Site
				{
					OFFSET 0.000000 -2.449906 4.627600 
				}
			}
		}
	}
}
MOTION
Frames: 15
Frame Time: 0.033333
-25.217146 4.696088 -52.512959 8.554688 9.560547 120.966805 29.726561 6.582031 6.601562 21.972658 -0.332031 -1.015682 -8.447267 0.000000 0.000000 -2.470703 -1.728528 -10.390844 -2.812500 -0.087891 -0.009766 -9.443359 -22.021484 -100.491943 -61.962891 -36.787109 -4.671886 15.712892 -26.074219 -29.613665 2.802734 0.078125 -0.009779 16.777344 -15.048828 -78.271484 61.201172 24.687500 -4.086110 -32.822266 31.787109 -17.412109 0.703265 -5.324346 5.874877 17.288025 7.962336 1.461110 -3.889740 1.437549 -5.493302 -2.170494 -20.831869 -24.087137 14.378385 1.850349 2.658434 -0.908389 10.250575 9.609713 
-25.954071 4.869669 -52.567001 7.822267 8.876953 120.401909 29.726561 6.582031 6.601562 23.554688 0.000000 -0.527344 -8.447267 0.000000 0.000000 -4.755859 -1.542969 -10.195576 -2.812500 -0.087891 -0.009766 -5.126953 -22.070313 -104.271248 -53.876957 -31.298826 -0.566406 16.865232 -26.865232 -31.064451 2.802734 0.078125 -0.009779 15.673827 -12.021485 -81.679688 55.322266 22.285156 -2.421876 -36.162109 29.746092 -21.245159 -1.178432 -5.335261 7.692825 16.903906 7.935853 1.288052 -2.760097 0.327643 -4.799553 -3.205065 -21.076788 -23.245832 14.175760 2.182731 2.692018 -0.446030 10.318145 10.494281 
-26.597063 5.091513 -52.652317 6.923828 8.544922 119.345695 29.726561 6.582031 6.601562 24.609375 0.478516 -0.136719 -8.447267 0.000000 0.000000 -6.513672 -1.533203 -9.795182 -2.812500 -0.087891 -0.009766 -2.031250 -23.857422 -106.386719 -45.937500 -26.416016 1.596143 17.519533 -28.056641 -30.990917 2.802734 0.078125 -0.009779 15.117186 -10.595703 -82.685547 49.013672 19.199217 -0.891883 -38.320313 28.330082 -23.647709 -2.573999 -4.858423 9.445042 16.492458 7.984154 1.085826 -1.964884 -0.333575 -3.906902 -3.907154 -20.621166 -22.602985 14.010092 2.182875 2.331733 -0.517378 10.060434 11.142202 
-27.186012 5.270762 -52.771851 6.210938 8.378906 118.517044 29.726561 6.582031 6.601562 25.312498 0.947266 0.273437 -8.447267 0.000000 0.000000 -7.392578 -1.357422 -9.463159 -2.812500 -0.087891 -0.009766 -0.527344 -26.796877 -103.984375 -36.933594 -21.953127 2.611072 17.597658 -28.925783 -29.848476 2.802734 0.078125 -0.009779 14.599609 -11.513671 -81.095695 42.138676 15.898438 -0.285877 -40.146484 27.119143 -25.083439 -3.936561 -4.527110 11.194954 15.892442 7.965882 0.888900 -0.946300 -0.945324 -3.374026 -3.731673 -20.170752 -22.073488 13.816939 2.358920 1.978001 -1.096825 9.370707 11.905890 
-27.644096 5.415902 -52.919827 5.322266 8.398438 117.335411 29.726561 6.582031 6.601562 25.322268 1.582031 0.576441 -8.447267 0.000000 0.000000 -7.392578 -1.191406 -8.808797 -2.812500 -0.087891 -0.009766 -1.767578 -28.632813 -97.949219 -29.667969 -17.998047 1.887783 16.689455 -28.818357 -29.203926 2.802734 0.078125 -0.009779 14.531250 -8.085938 -75.898438 35.664063 13.271484 0.078125 -40.390625 26.035158 -26.060165 -4.607074 -3.846494 12.699081 15.237427 8.049965 0.506314 -0.283458 -1.417005 -2.600769 -2.677735 -19.689095 -21.831053 14.537197 2.358725 1.504233 -2.247222 8.383598 12.006948 
-28.033974 5.552545 -53.099068 4.794922 8.925781 116.075729 29.726561 6.582031 6.601562 25.156250 2.226563 0.693739 -8.447267 0.000000 0.000000 -6.865234 -1.025391 -7.636719 -2.812500 -0.087891 -0.009766 -3.837891 -29.746092 -91.430626 -24.580080 -14.804688 0.937500 15.986329 -29.042973 -28.998882 2.802734 0.078125 -0.009779 15.478515 -1.816406 -71.787109 31.005863 11.201172 0.242244 -40.390625 26.035158 -25.884384 -4.747807 -3.523560 13.405384 14.508226 7.954012 0.676758 0.416072 -0.928447 -2.402848 -0.939499 -18.890482 -21.802332 15.446238 2.417254 1.029086 -3.793386 6.860014 11.750102 
-28.418068 5.603645 -53.346634 4.277344 9.638674 113.935547 29.726561 6.582031 6.601562 24.990234 2.705078 1.084445 -8.447267 0.000000 0.000000 -6.337891 -0.859375 -6.113281 -2.812500 -0.087891 -0.009766 -7.255858 -30.869143 -84.878059 -21.289063 -12.802734 0.468750 15.576173 -28.544924 -27.397245 2.802734 0.078125 -0.009779 17.822268 5.185547 -68.251068 28.378906 10.263672 0.994354 -39.912109 26.611328 -24.731953 -4.249946 -2.821952 14.807420 13.939921 7.819260 0.106976 0.726644 -0.073051 -2.069357 1.724236 -18.273146 -22.384367 16.659416 2.533523 0.951016 -5.192735 5.778509 10.505077 
-28.733847 5.640697 -53.605530 3.925781 10.517579 111.476395 29.726561 6.582031 6.601562 24.638674 2.714844 1.426244 -8.447267 0.000000 0.000000 -5.810546 -0.517578 -4.443447 -2.812500 -0.087891 -0.009766 -11.162109 -31.523438 -80.195313 -20.380859 -12.861328 1.037330 13.701172 -27.802734 -25.312496 2.802734 0.078125 -0.009779 20.029297 8.154297 -64.988846 28.417967 10.820313 1.728516 -38.496090 28.320313 -22.427008 -3.719993 -2.645920 15.989089 13.515458 7.887503 0.285926 1.246191 1.029168 -2.254169 4.703601 -17.886658 -23.898737 17.414459 2.348119 0.982312 -6.154137 4.898196 9.234856 
-29.032623 5.643525 -53.892868 3.583984 11.748047 108.505859 29.726561 6.582031 6.601562 24.277346 2.714844 2.109838 -8.447267 0.000000 0.000000 -5.107422 0.000000 -2.285156 -2.812500 -0.087891 -0.009766 -15.390624 -31.113281 -74.673019 -19.833982 -12.900392 1.320539 12.490234 -26.298828 -23.334404 2.802734 0.078125 -0.009779 22.548828 11.650392 -60.830082 28.447268 11.210938 2.722711 -37.187496 29.306641 -20.024517 -3.304857 -2.646335 17.371252 13.277187 7.973163 0.629787 1.029529 2.328436 -2.138930 7.601259 -17.484299 -25.229912 18.819262 2.338145 0.899216 -7.421509 4.384591 7.943210 
-29.322790 5.623585 -54.171715 3.056641 12.636720 105.099792 29.726561 6.582031 6.601562 23.749998 2.734375 2.607422 -8.447267 0.000000 0.000000 -4.228516 0.341797 0.273437 -2.812500 -0.087891 -0.009766 -19.462891 -29.677736 -69.155228 -19.277344 -12.773438 1.476768 11.621095 -24.599611 -22.162268 2.802734 0.078125 -0.009779 25.234375 14.433595 -55.498047 28.300779 11.650391 3.359375 -36.357422 29.912109 -18.081066 -2.821598 -2.304414 18.911205 12.936610 8.159344 0.460567 1.149916 4.051794 -1.891303 10.132661 -17.204224 -26.500036 20.102127 2.172462 0.764602 -7.838537 3.809959 6.562386 
-29.610243 5.586651 -54.447720 2.705078 13.515624 101.904297 29.726561 6.582031 6.601562 23.398438 2.578125 3.232422 -8.447267 0.000000 0.000000 -3.525390 0.859375 2.627100 -2.812500 -0.087891 -0.009766 -23.544920 -28.076174 -63.979210 -18.750002 -12.832032 1.406250 11.152344 -23.212891 -21.019476 2.802734 0.078125 -0.009779 27.890627 17.236328 -50.348667 27.998049 12.255860 4.158083 -35.361328 30.517576 -16.225510 -1.994211 -2.490725 20.439657 12.841162 8.314825 0.295771 1.192671 5.776542 -1.810192 12.505363 -17.156199 -27.453691 21.183441 1.937880 0.798333 -8.063992 3.443174 5.034039 
-29.843536 5.572375 -54.695278 2.167969 14.052735 98.283623 29.726561 6.582031 6.601562 23.222656 2.578125 3.926221 -8.447267 0.000000 0.000000 -2.998047 1.376966 4.990424 -2.812500 -0.087891 -0.009766 -26.972658 -26.328123 -59.912109 -18.789063 -13.320313 1.435547 11.435548 -22.314453 -19.456833 2.802734 0.078125 -0.009779 30.888670 19.882814 -45.576172 27.880859 12.832032 4.939237 -34.179684 31.152342 -14.272292 -1.555991 -2.646624 21.970665 12.934146 8.168640 0.295450 0.925338 7.508517 -1.748854 14.673874 -17.215513 -28.391750 21.895538 1.820344 0.633221 -7.922338 3.025340 3.881323 
-30.116594 5.535437 -54.925739 1.630859 14.228516 95.002396 29.726561 6.582031 6.601562 23.046875 2.421875 4.551194 -8.447267 0.000000 0.000000 -2.470703 2.070328 6.982723 -2.812500 -0.087891 -0.009766 -29.912109 -24.062502 -56.894535 -19.248047 -14.287110 1.184050 11.914063 -21.582031 -17.646484 2.802734 0.078125 -0.009779 34.208981 22.187498 -40.468746 27.773438 13.427735 5.505545 -32.841797 31.962894 -11.781938 -1.230594 -2.460593 23.003706 12.948233 8.154708 0.636310 0.886294 9.924812 -1.576411 16.441326 -17.225595 -29.113764 22.610426 1.820424 0.672999 -7.858852 2.310653 2.585190 
-30.327223 5.535437 -55.099316 1.083984 14.228515 91.875000 29.726561 6.582031 6.601562 22.861330 2.265625 5.000386 -8.447267 0.000000 0.000000 -1.777344 2.587891 8.496534 -2.812500 -0.087891 -0.009766 -32.177734 -21.816404 -55.263672 -20.097656 -15.517577 1.067066 12.958983 -21.152342 -16.113279 2.802734 0.078125 -0.009779 37.880859 23.652344 -35.214844 27.841797 14.003907 6.081621 -31.484375 32.607422 -9.570313 -1.144297 -2.676536 24.412121 12.914996 8.539980 0.496642 0.844220 11.777200 -1.454461 17.873016 -17.408838 -29.846804 22.976027 1.807261 0.359923 -7.671356 1.724769 2.504315 
-30.534906 5.501218 -55.213188 0.537109 14.052734 89.111328 29.726561 6.582031 6.601562 22.509766 2.265625 5.166401 -8.447267 0.000000 0.000000 -1.074219 3.466808 9.434155 -2.812500 -0.087891 -0.009766 -33.789063 -19.384768 -54.837231 -22.314455 -17.070311 0.585938 15.322266 -21.513670 -14.700845 2.802734 0.078125 -0.009779 41.552738 24.589844 -29.429527 28.125000 14.716795 6.318359 -29.746092 33.095707 -7.416542 -1.419905 -2.121035 24.820597 13.440603 8.060597 0.839770 0.969807 13.793127 -1.464205 18.917053 -17.399273 -30.685427 23.158369 1.816482 0.187004 -8.009763 0.904993 2.917379 
